<svg xmlns="http://www.w3.org/2000/svg" style="display:none;">
    <defs>
        <symbol id="logo">
            <rect y="1" width="30" height="30" />
            <rect x="38" width="32" height="32" rx="16" />
            <path d="M78 0L110 32H78V0Z" />
        </symbol>
    </defs>
    <defs>
        <symbol id="checkmark">
            <path d="M1.5 7.5L5 11L13 2" stroke="white" stroke-width="3" stroke-linecap="round" stroke-linejoin="round"/>
        </symbol>
    </defs>
    <defs>
        <symbol id="input-error">
            <path d="M10.29 3.86001L1.82 18C1.64537 18.3024 1.55296 18.6453 1.55199 18.9945C1.55101 19.3437 1.64149 19.6871 1.81442 19.9905C1.98736 20.2939 2.23672 20.5468 2.53771 20.7239C2.83869 20.901 3.1808 20.9962 3.53 21H20.47C20.8192 20.9962 21.1613 20.901 21.4623 20.7239C21.7633 20.5468 22.0126 20.2939 22.1856 19.9905C22.3585 19.6871 22.449 19.3437 22.448 18.9945C22.447 18.6453 22.3546 18.3024 22.18 18L13.71 3.86001C13.5317 3.56611 13.2807 3.32313 12.9812 3.15449C12.6817 2.98585 12.3437 2.89726 12 2.89726C11.6563 2.89726 11.3183 2.98585 11.0188 3.15449C10.7193 3.32313 10.4683 3.56611 10.29 3.86001V3.86001Z" stroke="#F03D3E" stroke-width="2" stroke-linecap="round" stroke-linejoin="round"/>
            <path d="M12 9V13" stroke="#F03D3E" stroke-width="2" stroke-linecap="round" stroke-linejoin="round"/>
            <path d="M12 16V16.5" stroke="#F03D3E" stroke-width="2" stroke-linecap="round" stroke-linejoin="round"/>
        </symbol>
    </defs>
    <defs>
        <symbol id="input-success">
            <path d="M22 11.08V12C21.9988 14.1564 21.3005 16.2547 20.0093 17.9818C18.7182 19.709 16.9033 20.9725 14.8354 21.5839C12.7674 22.1953 10.5573 22.1219 8.53447 21.3746C6.51168 20.6273 4.78465 19.2461 3.61096 17.4371C2.43727 15.628 1.87979 13.4881 2.02168 11.3363C2.16356 9.18457 2.99721 7.13633 4.39828 5.49707C5.79935 3.85782 7.69279 2.71538 9.79619 2.24015C11.8996 1.76491 14.1003 1.98234 16.07 2.86" stroke="#374FC7" stroke-width="2" stroke-linecap="round" stroke-linejoin="round"/>
            <path d="M22 4L12 14.01L9 11.01" stroke="#374FC7" stroke-width="2" stroke-linecap="round" stroke-linejoin="round"/>
        </symbol>
    </defs>
    <defs>
        <symbol id="burger-open">
            <path d="M3 12H21" stroke="#495057" stroke-width="2" stroke-linecap="round" stroke-linejoin="round"/>
            <path d="M3 6H21" stroke="#495057" stroke-width="2" stroke-linecap="round" stroke-linejoin="round"/>
            <path d="M3 18H21" stroke="#495057" stroke-width="2" stroke-linecap="round" stroke-linejoin="round"/>
        </symbol>
    </defs>
    <defs>
        <symbol id="burger-close">
            <path d="M18 6L6 18" stroke="#212429" stroke-width="2" stroke-linecap="round" stroke-linejoin="round"/>
            <path d="M6 6L18 18" stroke="#212429" stroke-width="2" stroke-linecap="round" stroke-linejoin="round"/>
        </symbol>
    </defs>
    <defs>
        <symbol id="logo">
            <rect y="1" width="30" height="30" fill="#212429"/>
            <rect x="38" width="32" height="32" rx="16" fill="#212429"/>
            <path d="M78 0L110 32H78V0Z" fill="#212429"/>
        </symbol>
    </defs>
    <defs>
        <symbol id="theme-light">
            <path d="M12 17C14.7614 17 17 14.7614 17 12C17 9.23858 14.7614 7 12 7C9.23858 7 7 9.23858 7 12C7 14.7614 9.23858 17 12 17Z" stroke="#495057" stroke-width="2" stroke-linecap="round" stroke-linejoin="round"/>
            <path d="M12 1V3" stroke="#495057" stroke-width="2" stroke-linecap="round" stroke-linejoin="round"/>
            <path d="M12 21V23" stroke="#495057" stroke-width="2" stroke-linecap="round" stroke-linejoin="round"/>
            <path d="M4.22021 4.21997L5.64021 5.63997" stroke="#495057" stroke-width="2" stroke-linecap="round" stroke-linejoin="round"/>
            <path d="M18.3599 18.36L19.7799 19.78" stroke="#495057" stroke-width="2" stroke-linecap="round" stroke-linejoin="round"/>
            <path d="M1 12H3" stroke="#495057" stroke-width="2" stroke-linecap="round" stroke-linejoin="round"/>
            <path d="M21 12H23" stroke="#495057" stroke-width="2" stroke-linecap="round" stroke-linejoin="round"/>
            <path d="M4.22021 19.78L5.64021 18.36" stroke="#495057" stroke-width="2" stroke-linecap="round" stroke-linejoin="round"/>
            <path d="M18.3599 5.63997L19.7799 4.21997" stroke="#495057" stroke-width="2" stroke-linecap="round" stroke-linejoin="round"/>
        </symbol>
    </defs>
    <defs>
        <symbol id="theme-dark">
            <path d="M20.9999 12.79C20.8426 14.4922 20.2038 16.1144 19.1581 17.4668C18.1125 18.8192 16.7034 19.8458 15.0956 20.4265C13.4878 21.0073 11.7479 21.1181 10.0794 20.7461C8.41092 20.3741 6.8829 19.5345 5.67413 18.3258C4.46536 17.117 3.62584 15.589 3.25381 13.9205C2.88178 12.252 2.99262 10.5121 3.57336 8.9043C4.15411 7.29651 5.18073 5.88737 6.53311 4.84175C7.8855 3.79614 9.5077 3.15731 11.2099 3C10.2133 4.34827 9.73375 6.00945 9.85843 7.68141C9.98312 9.35338 10.7038 10.9251 11.8893 12.1106C13.0748 13.2961 14.6465 14.0168 16.3185 14.1415C17.9905 14.2662 19.6516 13.7866 20.9999 12.79V12.79Z" stroke="#ACB5BD" stroke-width="2" stroke-linecap="round" stroke-linejoin="round"/>
        </symbol>
    </defs>
</svg>